<?xml version="1.0" standalone="no"?><svg xmlns="http://www.w3.org/2000/svg" viewBox="0 0 1440 320"><path fill="#cee1e5" fill-opacity="1" d="M0,128L24,112C48,96,96,64,144,64C192,64,240,96,288,117.3C336,139,384,149,432,154.7C480,160,528,160,576,154.7C624,149,672,139,720,160C768,181,816,235,864,229.3C912,224,960,160,1008,160C1056,160,1104,224,1152,213.3C1200,203,1248,117,1296,85.3C1344,53,1392,75,1416,85.3L1440,96L1440,0L1416,0C1392,0,1344,0,1296,0C1248,0,1200,0,1152,0C1104,0,1056,0,1008,0C960,0,912,0,864,0C816,0,768,0,720,0C672,0,624,0,576,0C528,0,480,0,432,0C384,0,336,0,288,0C240,0,192,0,144,0C96,0,48,0,24,0L0,0Z"></path></svg>