<?xml version="1.0" standalone="no"?><svg xmlns="http://www.w3.org/2000/svg" viewBox="0 0 1440 320"><path fill="#cee1e5" fill-opacity="1" d="M0,0L26.7,26.7C53.3,53,107,107,160,122.7C213.3,139,267,117,320,122.7C373.3,128,427,160,480,144C533.3,128,587,64,640,85.3C693.3,107,747,213,800,240C853.3,267,907,213,960,170.7C1013.3,128,1067,96,1120,117.3C1173.3,139,1227,213,1280,234.7C1333.3,256,1387,224,1413,208L1440,192L1440,0L1413.3,0C1386.7,0,1333,0,1280,0C1226.7,0,1173,0,1120,0C1066.7,0,1013,0,960,0C906.7,0,853,0,800,0C746.7,0,693,0,640,0C586.7,0,533,0,480,0C426.7,0,373,0,320,0C266.7,0,213,0,160,0C106.7,0,53,0,27,0L0,0Z"></path></svg>