<?xml version="1.0" standalone="no"?>
<svg xmlns:xlink="http://www.w3.org/1999/xlink" id="wave" style="transform:rotate(180deg); transition: 0.3s" viewBox="0 0 1440 490" version="1.1" xmlns="http://www.w3.org/2000/svg"><defs><linearGradient id="sw-gradient-0" x1="0" x2="0" y1="1" y2="0"><stop stop-color="rgba(206, 225, 229, 1)" offset="0%"/><stop stop-color="rgba(40, 67, 74, 1)" offset="100%"/></linearGradient></defs><path style="transform:translate(0, 0px); opacity:1" fill="url(#sw-gradient-0)" d="M0,49L60,57.2C120,65,240,82,360,130.7C480,180,600,261,720,253.2C840,245,960,147,1080,130.7C1200,114,1320,180,1440,187.8C1560,196,1680,147,1800,171.5C1920,196,2040,294,2160,310.3C2280,327,2400,261,2520,196C2640,131,2760,65,2880,81.7C3000,98,3120,196,3240,261.3C3360,327,3480,359,3600,351.2C3720,343,3840,294,3960,245C4080,196,4200,147,4320,138.8C4440,131,4560,163,4680,147C4800,131,4920,65,5040,49C5160,33,5280,65,5400,122.5C5520,180,5640,261,5760,285.8C5880,310,6000,278,6120,277.7C6240,278,6360,310,6480,302.2C6600,294,6720,245,6840,212.3C6960,180,7080,163,7200,138.8C7320,114,7440,82,7560,98C7680,114,7800,180,7920,228.7C8040,278,8160,310,8280,302.2C8400,294,8520,245,8580,220.5L8640,196L8640,490L8580,490C8520,490,8400,490,8280,490C8160,490,8040,490,7920,490C7800,490,7680,490,7560,490C7440,490,7320,490,7200,490C7080,490,6960,490,6840,490C6720,490,6600,490,6480,490C6360,490,6240,490,6120,490C6000,490,5880,490,5760,490C5640,490,5520,490,5400,490C5280,490,5160,490,5040,490C4920,490,4800,490,4680,490C4560,490,4440,490,4320,490C4200,490,4080,490,3960,490C3840,490,3720,490,3600,490C3480,490,3360,490,3240,490C3120,490,3000,490,2880,490C2760,490,2640,490,2520,490C2400,490,2280,490,2160,490C2040,490,1920,490,1800,490C1680,490,1560,490,1440,490C1320,490,1200,490,1080,490C960,490,840,490,720,490C600,490,480,490,360,490C240,490,120,490,60,490L0,490Z"/></svg>