<?xml version="1.0" standalone="no"?>
<svg xmlns:xlink="http://www.w3.org/1999/xlink" id="wave" style="transform:rotate(180deg); transition: 0.3s" viewBox="0 0 1440 240" version="1.1" xmlns="http://www.w3.org/2000/svg"><defs><linearGradient id="sw-gradient-0" x1="0" x2="0" y1="1" y2="0"><stop stop-color="rgba(206, 225, 229, 1)" offset="0%"/><stop stop-color="rgba(40, 67, 74, 1)" offset="100%"/></linearGradient></defs><path style="transform:translate(0, 0px); opacity:1" fill="url(#sw-gradient-0)" d="M0,192L20,188C40,184,80,176,120,144C160,112,200,56,240,56C280,56,320,112,360,128C400,144,440,120,480,116C520,112,560,128,600,120C640,112,680,80,720,72C760,64,800,80,840,92C880,104,920,112,960,116C1000,120,1040,120,1080,128C1120,136,1160,152,1200,132C1240,112,1280,56,1320,28C1360,0,1400,0,1440,32C1480,64,1520,128,1560,144C1600,160,1640,128,1680,132C1720,136,1760,176,1800,188C1840,200,1880,184,1920,184C1960,184,2000,200,2040,184C2080,168,2120,120,2160,120C2200,120,2240,168,2280,176C2320,184,2360,152,2400,128C2440,104,2480,88,2520,92C2560,96,2600,120,2640,116C2680,112,2720,80,2760,88C2800,96,2840,144,2860,168L2880,192L2880,240L2860,240C2840,240,2800,240,2760,240C2720,240,2680,240,2640,240C2600,240,2560,240,2520,240C2480,240,2440,240,2400,240C2360,240,2320,240,2280,240C2240,240,2200,240,2160,240C2120,240,2080,240,2040,240C2000,240,1960,240,1920,240C1880,240,1840,240,1800,240C1760,240,1720,240,1680,240C1640,240,1600,240,1560,240C1520,240,1480,240,1440,240C1400,240,1360,240,1320,240C1280,240,1240,240,1200,240C1160,240,1120,240,1080,240C1040,240,1000,240,960,240C920,240,880,240,840,240C800,240,760,240,720,240C680,240,640,240,600,240C560,240,520,240,480,240C440,240,400,240,360,240C320,240,280,240,240,240C200,240,160,240,120,240C80,240,40,240,20,240L0,240Z"/></svg>